<svg width="16" height="16" viewBox="0 0 16 16" fill="none" xmlns="http://www.w3.org/2000/svg">
<g clip-path="url(#clip0_12_126)">
<path d="M10.2379 4.67666C10.6225 4.66533 10.9531 4.72578 11.2473 4.91692C11.7406 5.23727 12.0234 5.68757 12.0439 6.27689C12.0606 6.76572 12.0439 7.25909 12.0439 7.76604C12.1283 7.76604 12.1959 7.77513 12.2613 7.77513C12.8116 7.77513 13.3612 7.77513 13.9115 7.77513C14.2588 7.77513 14.4207 7.96476 14.3599 8.30399C14.1418 9.53401 13.9213 10.5706 13.6979 11.7999C13.6439 12.0945 13.4888 12.2177 13.1833 12.2192C12.7227 12.2192 12.2628 12.2192 11.7733 12.2192V15.9969H10.9896V10.4142H4.83735V15.9999H4.02405V12.2343C3.93436 12.2305 3.86671 12.2245 3.79602 12.2245C3.40457 12.2245 3.01236 12.2245 2.62015 12.2245C2.31078 12.2199 2.16409 12.1006 2.11012 11.8014C1.90185 10.6529 1.69738 9.70553 1.49139 8.56239C1.47543 8.47625 1.45947 8.38937 1.44807 8.30249C1.4017 7.95266 1.55372 7.77359 1.90413 7.77359C2.36551 7.77359 2.82689 7.77359 3.28827 7.77359H3.49958V7.55525C3.49958 6.80729 3.49958 6.42799 3.50338 5.68002C3.50338 5.36041 3.5201 5.12469 3.71925 4.84892C3.9184 4.57314 3.99821 4.44924 4.20572 4.15609C4.38434 3.9045 4.65265 3.83801 4.8746 3.98988C5.09655 4.14175 5.11633 4.37897 4.92935 4.64265C4.50292 5.24709 4.38358 5.20857 4.38358 5.6853C4.38358 6.08121 4.40182 7.76453 4.40182 7.76453H5.3626V7.29157C5.3626 6.99615 5.3626 6.70073 5.3626 6.40533C5.3778 5.45183 5.99194 4.77941 6.97476 4.66761C6.17818 3.92866 5.87111 3.03563 6.11281 1.98695C6.21959 1.52423 6.45437 1.1004 6.79066 0.763315C7.12695 0.426224 7.55133 0.189297 8.01594 0.079287C8.48052 -0.0307228 8.96682 -0.00943481 9.41988 0.140747C9.87297 0.29093 10.2748 0.564025 10.5799 0.929196C11.4252 1.93935 11.4556 3.57359 10.2379 4.67666ZM13.4303 8.56162H2.38375C2.55402 9.50377 2.72124 10.4278 2.88846 11.3571H4.01569V10.1392C4.01569 9.81129 4.18976 9.66018 4.50596 9.66018H11.2967C11.5711 9.66018 11.7984 9.93065 11.7984 10.189C11.7984 10.5774 11.7984 10.9642 11.7984 11.3692C12.1526 11.3692 12.4931 11.3737 12.8329 11.3632C12.8732 11.3632 12.934 11.2876 12.9454 11.2324C12.9993 10.9877 13.0404 10.7391 13.0852 10.492L13.4303 8.56162ZM6.21466 7.68444H11.2093C11.2093 7.24322 11.2131 6.81634 11.2093 6.38946C11.204 5.87266 10.8558 5.52738 10.3374 5.52665C9.2505 5.52665 8.1633 5.52665 7.07588 5.52665C6.62513 5.52665 6.25953 5.80921 6.22378 6.24892C6.1858 6.72415 6.21466 7.20015 6.21466 7.68444ZM6.87521 2.61329C6.86986 2.84288 6.91034 3.07125 6.99434 3.28517C7.07831 3.49913 7.20413 3.69439 7.36452 3.8597C7.5249 4.02501 7.71665 4.15711 7.92868 4.24831C8.14071 4.33951 8.36884 4.38802 8.59988 4.39106C9.56138 4.39788 10.3428 3.61436 10.3481 2.6352C10.3534 1.65602 9.5728 0.856665 8.62266 0.852886C7.67255 0.84911 6.88279 1.63336 6.87521 2.61329Z" fill="white"/>
</g>
<defs>
<clipPath id="clip0_12_126">
<rect width="13.12" height="16" fill="white" transform="translate(1.43994)"/>
</clipPath>
</defs>
</svg>
